<?xml version="1.0" encoding="UTF-8"?>
<svg id="Layer_2" data-name="Layer 2" xmlns="http://www.w3.org/2000/svg" viewBox="0 0 186.36 272.4">
  <defs>
    <style>
      .cls-1 {
        fill: #fff;
      }
    </style>
  </defs>
  <g id="Layer_5" data-name="Layer 5">
    <g>
      <g>
        <path class="cls-1" d="M34.22,271.51h-7.55l-.48-1.15-2.39-6.1H7.19l-.29.68-2.65,6.58H0l.98-2.45,13.41-33.19h5.82l.46,1.16,13.54,34.49ZM15.58,243.23l-6.82,17.11h13.56l-6.74-17.11Z"/>
        <path class="cls-1" d="M64.44,262.66c0,7.18-7.51,9.73-13.95,9.73-7.22,0-12.16-3.22-13.54-8.85l-.23-.93,5.09-1.02.2.88c.89,4,4.04,6.02,9.35,6.02,3.24,0,6.69-1.87,6.72-5.34.02-2.8-2.94-4-8.63-6.05l-1.38-.5c-5.14-1.85-11.53-4.14-11.53-10.83,0-4.09,4.06-9.85,13.07-9.85,6.06,0,10.75,2.3,13.56,6.65l.62.96-4.79,1.79-.4-.62c-1.53-2.36-4.32-5.18-8.9-5.18-2.69,0-4.73.78-5.9,2.25-1.05,1.32-1.18,2.89-1.01,3.63.55,2.37,2.85,3.28,7.6,4.95.6.21,1.23.43,1.89.67,5.23,1.89,12.18,5.15,12.18,11.64Z"/>
        <path class="cls-1" d="M77.3,267.47h19.23l-3.04,4.04h-23.08v-35.66h2.11s24.76,0,24.76,0l-3.86,3.93h-16.11v9.49h19.05l-3.13,3.92h-15.91v14.29Z"/>
        <path class="cls-1" d="M108.79,267.47h19.23l-3.04,4.04h-23.08v-35.66h2.11s24.76,0,24.76,0l-3.86,3.93h-16.11v9.49h19.05l-3.13,3.92h-15.91v14.29Z"/>
        <path class="cls-1" d="M167.42,266.4l2.55,2.1-1.02.69c-1.22.82-2.55,1.5-3.95,2.01-1.18.43-2.39.74-3.6.92-.85.12-1.75.19-2.68.19-.65,0-1.3-.03-1.93-.08-1.32-.1-2.71-.33-4.38-.71l-1.16-.28c-2.08-.51-3.96-.93-5.89-.93h-.34c-2.86.03-8.42.53-10.34,1.24l-1.24.46v-2.85s.02-33.51.02-33.51h6.96l.02,31.09c1.64-.31,2.8-.37,4.54-.39h.36c2.74,0,5.39.66,7.73,1.25l.51.13c1.43.34,2.54.53,3.62.61,1.26.1,2.49.1,3.54-.02,1.85-.22,3.68-.87,5.45-1.91l.68-.41.55.39ZM186.36,271.25h-7.55l-.48-1.15-2.39-6.11h-16.61l-1.41,3.49h-4.25l.98-2.45,11.88-29.43h5.82l.46,1.16,13.54,34.48ZM167.71,242.97l-6.82,17.11h13.56l-6.74-17.11Z"/>
      </g>
      <g>
        <path class="cls-1" d="M89.59,51.9l-2.04-25.57c-.64-8.02,4.6-15.37,12.41-17.3.05-.01.1-.02.14-.04l-2.97,34.85c-.35,4.1-3.45,7.42-7.51,8.06-.01,0-.02,0-.04,0Z"/>
        <path class="cls-1" d="M81.8,53.93l-5.55-18.67c-2.21-7.44.83-15.46,7.46-19.49.04-.02.08-.05.12-.07l3.64,29.08c.5,3.98-1.84,7.75-5.6,9.12-.02,0-.04.01-.06.02Z"/>
        <path class="cls-1" d="M74.69,57.48l-6.03-11.08c-3.49-6.42-2.69-14.35,2.09-19.88.07-.08.13-.15.2-.22l7.29,21.01c1.31,3.78-.14,7.94-3.49,10.14-.02.01-.04.02-.05.04Z"/>
        <path class="cls-1" d="M68.76,62.63l-4.37-5.11c-4.38-5.11-5.3-12.36-2.27-18.37.02-.03.04-.07.05-.1l7.65,12.66c2.09,3.45,1.65,7.85-1.02,10.87-.01.02-.03.03-.04.05Z"/>
        <path class="cls-1" d="M64.51,69.06l-1.27-.97c-4.79-3.67-7.09-9.75-5.87-15.66.02-.08.03-.16.05-.23l5.5,5.87c2.76,2.95,3.38,7.29,1.61,10.92,0,.02-.02.04-.03.06Z"/>
        <path class="cls-1" d="M62.09,76.14h0c-3.52-1.68-5.84-5.16-6.02-9.05-.07-1.45-.1-2.55-.1-2.65l2.21,1.54c3.24,2.26,4.77,6.24,3.93,10.1,0,.02,0,.04-.01.06Z"/>
        <path class="cls-1" d="M61.29,83.26h0c-1.66-.4-2.98-1.67-3.41-3.33-.43-1.61-.78-3.25-1.07-4.91h0c2.85,1.2,4.66,4.05,4.52,7.13-.02.37-.03.74-.04,1.11Z"/>
        <path class="cls-1" d="M155.04,156.5h0c-2.54-2.71-3.35-6.63-2.04-10.11,1.06-2.84,1.95-5.76,2.64-8.76h0c5.26,4.03,5.95,11.69,1.5,16.59-1.14,1.26-1.97,2.17-2.1,2.28Z"/>
        <path class="cls-1" d="M167.44,142.19h0c-6.61-4.61-10.41-12.29-10.05-20.34.04-.8.05-1.32.05-1.41l4.24,2.02c7.38,3.51,10.11,12.65,5.84,19.62-.04.06-.06.1-.07.12Z"/>
        <path class="cls-1" d="M176.6,125.61l-5.87-2.48c-7.78-3.28-13.51-10.12-15.31-18.36h0s11.4,2.72,11.4,2.72c7.96,1.9,12.55,10.28,9.83,18-.02.06-.04.1-.05.12Z"/>
        <path class="cls-1" d="M182.1,107.49l-14.33-2.75c-7.5-1.44-13.83-6.39-17.1-13.29-.02-.03-.03-.07-.05-.1l18.15.46c8.18.21,14.4,7.44,13.35,15.56,0,.07-.02.11-.02.13Z"/>
        <path class="cls-1" d="M167.44,142.19h0c-6.61-4.61-10.41-12.29-10.05-20.34.04-.8.05-1.32.05-1.41l4.24,2.02c7.38,3.51,10.11,12.65,5.84,19.62-.04.06-.06.1-.07.12Z"/>
        <path class="cls-1" d="M176.6,125.61l-5.87-2.48c-7.78-3.28-13.51-10.12-15.31-18.36h0s11.4,2.72,11.4,2.72c7.96,1.9,12.55,10.28,9.83,18-.02.06-.04.1-.05.12Z"/>
        <path class="cls-1" d="M182.1,107.49l-14.33-2.75c-7.5-1.44-13.83-6.39-17.1-13.29-.02-.03-.03-.07-.05-.1l18.15.46c8.18.21,14.4,7.44,13.35,15.56,0,.07-.02.11-.02.13Z"/>
        <path class="cls-1" d="M183.69,88.62l-22.42.44c-6.77.13-13.14-3.1-17.1-8.59-.02-.03-.04-.06-.06-.08l23.34-4.35c8.03-1.5,15.61,4.29,16.23,12.44,0,.07,0,.12,0,.14Z"/>
        <path class="cls-1" d="M181.37,69.83l-28.43,6.63c-5.82,1.36-11.91-.42-16.14-4.65-.02-.02-.04-.04-.07-.07l26.06-10.83c7.56-3.14,16.19.94,18.53,8.78.02.06.03.11.04.13Z"/>
        <path class="cls-1" d="M175.17,51.93l-31.4,14.73c-4.8,2.25-10.44,1.64-14.68-1.53-.02-.02-.05-.03-.07-.05l26.13-18c6.74-4.64,16.04-2.45,19.96,4.73.03.06.05.1.06.12Z"/>
        <path class="cls-1" d="M165.37,35.73l-31,23.47c-3.8,2.88-8.93,3.2-13.09.87-.02-.01-.05-.03-.07-.04l23.6-24.92c5.62-5.94,15.16-5.71,20.47.51.05.05.08.09.09.11Z"/>
        <path class="cls-1" d="M113.42,56.29l18.69-30.57c4.27-6.98,13.62-8.81,20.18-3.92.07.05.12.09.14.11l-27.41,31.68c-2.85,3.3-7.49,4.38-11.53,2.74-.02,0-.05-.02-.07-.03Z"/>
        <path class="cls-1" d="M105.6,53.65l11.81-33.46c2.73-7.73,11.4-11.62,18.96-8.45.05.02.09.04.14.06l-20.74,37.61c-1.99,3.6-6.2,5.36-10.16,4.24h0Z"/>
        <path class="cls-1" d="M97.67,51.96l3.98-30.49c1.07-8.17,8.11-14.25,16.34-14.04.13,0,.24,0,.33.01l-11.85,39.06c-1.14,3.75-4.86,6.06-8.73,5.47-.02,0-.05,0-.07-.01Z"/>
        <g>
          <path class="cls-1" d="M96.75,0l-.03,2.38c-.06,4.35-2.66,8.25-6.64,10.03-.02,0-.04.02-.06.03l-.12-5.44C89.82,3.16,92.91,0,96.75,0h0Z"/>
          <path class="cls-1" d="M77.88,1.21l1.73,8.74c.86,4.36-.69,8.83-4.04,11.76-.02.02-.04.03-.05.05l-2.89-12.28c-.88-3.74,1.49-7.47,5.25-8.27h0Z"/>
          <path class="cls-1" d="M59.68,6.33l6.41,14.96c1.78,4.16,1.37,8.93-1.08,12.72,0,0,0,.01-.01.02l-8.73-18.52c-1.64-3.48-.1-7.62,3.41-9.18h0Z"/>
          <path class="cls-1" d="M42.93,15.11l13.91,19.71c2.57,3.64,3.24,8.28,1.87,12.52,0,.02-.01.04-.02.07l-17.19-22.61c-2.32-3.06-1.68-7.43,1.43-9.69h0Z"/>
          <path class="cls-1" d="M28.38,27.19l23.27,21.54c3.2,2.96,4.85,7.24,4.47,11.59,0,0,0,.02,0,.02l-27.12-23.39c-2.91-2.51-3.19-6.92-.62-9.77h0Z"/>
          <path class="cls-1" d="M16.66,42.02l33.35,19.88c3.52,2.1,5.83,5.74,6.29,9.81,0,.02,0,.04,0,.06l-37.01-20.32c-3.37-1.85-4.56-6.1-2.64-9.43h0Z"/>
          <path class="cls-1" d="M8.27,58.97l42.48,14.46c3.62,1.23,6.39,4.17,7.45,7.84,0,.02.01.04.02.06l-45.41-13.68c-3.68-1.11-5.73-5.02-4.54-8.68h0Z"/>
          <path class="cls-1" d="M3.6,77.29l49.51,5.9c3.51.42,6.52,2.65,7.98,5.87,0,.02.02.03.02.05l-51.27-4.28c-3.83-.32-6.65-3.72-6.24-7.54h0Z"/>
          <path class="cls-1" d="M62.71,95.59s0,.03.01.05l-52,6.6c-3.85.49-7.37-2.21-7.89-6.05h0s53.86-4.91,53.86-4.91c2.8-.25,5.35,1.58,6.02,4.31Z"/>
          <path class="cls-1" d="M64.63,101.79l-47.56,16.59c-3.69,1.29-7.78-.43-9.39-4,0-.02-.02-.04-.03-.06l50.69-15.69c2.59-.8,5.33.58,6.27,3.12l.02.05Z"/>
          <path class="cls-1" d="M67.16,107.74l-38.77,23.51c-3.42,2.08-7.85,1.47-10.55-1.48-.02-.02-.03-.03-.05-.05l43.02-24.04c2.3-1.28,5.19-.35,6.33,2.02l.02.05Z"/>
          <path class="cls-1" d="M70.37,113.67l-27.65,25.99c-2.97,2.79-7.41,3.34-10.94,1.3-.02-.01-.04-.02-.06-.04l32.33-28.31c1.95-1.71,4.96-1.22,6.29,1.01l.03.04Z"/>
          <path class="cls-1" d="M74.4,119.76l-16.22,23.36c-2.35,3.38-6.51,5.02-10.52,4.09-.02,0-.05-.01-.07-.02l20.6-27.54c1.55-2.07,4.65-2.03,6.17.06l.03.04Z"/>
          <path class="cls-1" d="M79.57,126.22l-6.67,15.9c-1.59,3.78-5.2,6.35-9.3,6.53-.02,0-.05,0-.07,0l9.99-21.63c1.1-2.38,4.28-2.83,6.01-.85l.04.04Z"/>
          <path class="cls-1" d="M86.37,133.23l-.86,4.52c-.75,3.97-3.62,7.22-7.48,8.41-.02,0-.04.01-.07.02l2.55-11.22c.6-2.64,3.84-3.62,5.81-1.77.02.01.03.03.05.04Z"/>
          <path class="cls-1" d="M115.46,2.74h0c-.6,2.66-2.9,4.59-5.62,4.75-.93.05-1.81.12-2.45.19h0c.67-3.51,4.09-5.78,7.58-5.04l.48.1Z"/>
        </g>
        <g>
          <path class="cls-1" d="M14.06,134.24h0s4.14-2.39,4.14-2.39c.64-.37,1.44-.27,1.96.25.42.41.89.87,1.21,1.16h0s-3.48,2.01-3.48,2.01c-1.34.78-3.06.32-3.84-1.03Z"/>
          <path class="cls-1" d="M24.91,149.73h0s6.38-5.75,6.38-5.75c1.36-1.22,3.31-1.5,4.96-.72h.03s0,.01,0,.01l-7.4,6.66c-1.15,1.04-2.93.95-3.97-.21Z"/>
          <path class="cls-1" d="M38.74,162.62h0s9.01-12.4,9.01-12.4c1.13-1.56,3.04-2.35,4.95-2.08h.03s0,0,0,0l-10.06,13.85c-.91,1.26-2.67,1.53-3.92.62Z"/>
          <path class="cls-1" d="M54.95,172.36h0s9.24-20.76,9.24-20.76c.83-1.86,2.57-3.15,4.59-3.4h0s-10.12,22.74-10.12,22.74c-.63,1.42-2.29,2.05-3.71,1.42Z"/>
          <path class="cls-1" d="M72.83,178.51h0s6.28-29.54,6.28-29.54c.44-2.05,1.87-3.75,3.81-4.54h.03s0-.01,0-.01l-6.79,31.92c-.32,1.52-1.81,2.49-3.33,2.16Z"/>
          <path class="cls-1" d="M94.4,138.16v39.84c0,1.55-1.26,2.81-2.81,2.81h0v-37.34c0-2.12,1.05-4.11,2.81-5.31h0Z"/>
          <path class="cls-1" d="M110.43,179.16h0s-9.08-42.73-9.08-42.73c-.43-2.04.2-4.17,1.67-5.65h0s9.58,45.05,9.58,45.05c.32,1.52-.65,3.01-2.16,3.33Z"/>
          <path class="cls-1" d="M109.16,123.26l20.77,46.65c.63,1.42,0,3.08-1.42,3.71h0s-19.96-44.83-19.96-44.83c-.81-1.82-.58-3.93.61-5.52h0Z"/>
          <path class="cls-1" d="M144.09,162.99h-.11s-30.04-41.35-30.04-41.35c-1.02-1.4-1.06-3.3-.09-4.74.02-.03.04-.06.06-.09h0s30.21,41.58,30.21,41.58c.99,1.37.99,3.21,0,4.58l-.02.02Z"/>
          <path class="cls-1" d="M117.58,110.69s0,0,0,0l34.5,31.06c1.19,1.07,1.62,2.76,1.07,4.27-.03.09-.06.17-.09.24-.01.04-.03.07-.04.11l-34.69-31.23c-1.25-1.12-1.56-2.95-.76-4.43v-.02Z"/>
          <path class="cls-1" d="M120.47,104.7l34.38,19.85c1.55.9,2.43,2.62,2.25,4.41v.03s-.06.03-.1.05l-35.21-20.33c-1.39-.8-1.96-2.53-1.32-4.01h0Z"/>
          <path class="cls-1" d="M122.68,98.66h0s31.01,10.07,31.01,10.07c1.72.56,2.96,2.06,3.19,3.85v.03s.01.08.02.12l-32.4-10.53c-1.47-.48-2.29-2.07-1.82-3.54Z"/>
          <path class="cls-1" d="M124.23,92.39l25.28,2.66c1.8.19,3.33,1.4,3.93,3.1v.03s.04.08.05.12l-27.02-2.84c-1.5-.16-2.54-1.58-2.25-3.06h0Z"/>
          <path class="cls-1" d="M124.98,85.8v-.03s0,0,0,0l18.45-1.94c1.78-.19,3.5.68,4.4,2.22v.03s.06.07.08.1l-20.26,2.13c-1.54.16-2.73-.97-2.66-2.52Z"/>
          <path class="cls-1" d="M124.67,78.85v-.03s0,0,0,0l11.69-3.8c1.67-.54,3.5-.02,4.62,1.33l.02.02-.03.11-13.25,4.3c-1.48.48-2.84-.39-3.05-1.93Z"/>
          <path class="cls-1" d="M122.93,71.74l6.03-3.48c1.46-.84,3.3-.66,4.56.45l.02.02s.06.05.09.08l-7.31,4.22c-1.28.74-2.92.12-3.39-1.28h0Z"/>
          <path class="cls-1" d="M119.45,65.06l-.02-.02s0,0,0,0l2.07-1.87c1.21-1.09,3-1.22,4.35-.32h.02s.06.06.09.08l-2.86,2.57c-1.15,1.03-2.79.83-3.67-.43Z"/>
          <path class="cls-1" d="M114.17,59.37s-.01-.01-.02-.02h0s0,0,0,0c.9-1.24,2.56-1.65,3.94-.97.03.01.05.03.08.04.03.02.07.03.1.05l-.32.44c-.9,1.24-2.59,1.44-3.77.47Z"/>
        </g>
        <circle class="cls-1" cx="93" cy="77.29" r="7.88"/>
      </g>
      <g>
        <g>
          <path class="cls-1" d="M162.36,191.87l-9.66,13.95c-2.91,4.21-7.72,6.69-12.84,6.69-.03,0-.05,0-.08,0l7.66-16.25c2.64-5.59,9.55-7.68,14.82-4.45.05.03.08.05.09.06Z"/>
          <path class="cls-1" d="M149.8,184.98l-8.52,20.38c-1.74,4.17-5.53,7.13-10,7.85-.02,0-.05,0-.07.01l4.9-20.79c1.42-6.03,7.75-9.52,13.6-7.48.05.02.08.03.09.03Z"/>
          <path class="cls-1" d="M136.08,180.86l-4.86,25.79c-.74,3.94-3.61,7.13-7.44,8.33-.02,0-.04.01-.06.02l.52-24c.14-6.19,5.6-10.93,11.74-10.15.05,0,.08.01.1.01Z"/>
        </g>
        <g>
          <polygon class="cls-1" points="74.87 222.98 70.94 219.5 66.22 223.69 70.94 228.01 74.87 224.48 78.79 228.01 83.52 223.69 78.8 219.5 74.87 222.98"/>
          <path class="cls-1" d="M123.88,207.3h-45.16v-.87c0-.11.01-.27.03-.5.02-.23.02-.34.02-.4v-17.59c-4.69,2.18-7.76,6.92-7.76,12.16v2.9c0,2.77-1.66,4.29-4.68,4.29h-25.88l.2-1.03c.01-.08.04-.26.04-.67v-31.57c-4.66,2.17-7.71,6.89-7.71,12.1v16.89c0,1.39-.45,2.47-1.35,3.22-.85.71-1.86,1.07-3,1.07h-1.59l.86-1.34c.71-1.1.98-2.61.79-4.5-.2-2-1-4.76-2.39-8.19l-4.95-12.33c-1.72.82-3.09,2.21-3.88,3.98-.91,2.03-.95,4.28-.12,6.33l2.8,6.93c.6,1.48.91,2.92.91,4.26s-.37,2.43-1.09,3.24c-.71.8-1.39,1.27-2.09,1.42h-.04c-2.33.46-4.03,2.47-4.03,4.81v3.09h14.47c5.49,0,9.11-1.11,10.77-3.31l1.56-2.06v5.37h25.71c5.49,0,9.11-1.11,10.77-3.31l1.56-2.06v5.37h45.06l.17-7.71Z"/>
          <path class="cls-1" d="M164.94,188.03v27.67c4.69-2.21,7.76-6.97,7.76-12.22v-27.6c-4.69,2.18-7.76,6.92-7.76,12.16Z"/>
        </g>
      </g>
    </g>
  </g>
</svg>