<?xml version="1.0" encoding="UTF-8"?>
<svg id="Layer_1" data-name="Layer 1" xmlns="http://www.w3.org/2000/svg" viewBox="0 0 2000 2000">
  <defs>
    <style>
      .cls-1 {
        fill: #fff;
      }
    </style>
  </defs>
  <g>
    <g>
      <polygon class="cls-1" points="195.68 1079.19 321.48 798.69 322.71 797.84 347.49 797.83 348.77 798.61 474.56 1079.02 473.79 1080.35 473.12 1081.35 471.96 1081.37 448.26 1081.37 446.97 1080.59 416.03 1011.46 334.91 826.71 253.87 1011.44 223.35 1080.5 222.11 1081.36 197.25 1081.37 195.68 1079.19"/>
      <path class="cls-1" d="M647.79,1081.37c-28.54,0-55.15-9.93-74.91-27.97-22.3-20.35-34.09-49.35-34.09-83.88v-174.09l1.41-1.52h22.89s1.53,1.4,1.53,1.4v174.21c.01,60.05,43.12,87.4,83.17,87.4s83.38-27.35,83.38-87.4v-174.09l1.41-1.52h22.89s1.53,1.4,1.53,1.4v174.21c.01,34.48-11.8,63.47-34.16,83.84-19.83,18.06-46.48,28.01-75.05,28.01Z"/>
      <path class="cls-1" d="M1238.64,1079.96v-280.59s1.4-1.52,1.4-1.52h123.62c28.72-.01,52.95,9.63,70.08,27.87,15.19,16.19,23.68,37.95,23.89,61.29.22,24.45-8.19,46.51-23.67,62.13-15.51,15.65-37.53,24.38-63.89,25.39l95.77,103.83-.62,1.67-.58,1.32-1.42.03h-28.7l-1-.41-96.97-106.19-.36-.89v-2.17s1.38-1.52,1.38-1.52l23.65-.3c44.2,0,67.74-41.9,68.17-83.29.22-17.46-6.27-34.17-17.8-45.84-11.82-11.96-28.4-18.29-47.94-18.29h-98.84l.04,257.35-1.41,1.53h-23.28s-1.53-1.4-1.53-1.4Z"/>
      <polygon class="cls-1" points="1525.39 1079.19 1651.19 798.69 1652.43 797.84 1677.2 797.83 1678.48 798.61 1804.27 1079.02 1803.5 1080.35 1802.84 1081.35 1801.67 1081.37 1777.97 1081.37 1776.69 1080.59 1745.74 1011.46 1664.62 826.71 1583.58 1011.44 1553.07 1080.5 1551.83 1081.36 1526.96 1081.37 1525.39 1079.19"/>
    </g>
    <g>
      <path class="cls-1" d="M714.19,1205.92h-39l-7.66,18.05h-14.97l35.13-78.01h14.26l35.22,78.01h-15.19l-7.79-18.05ZM709.39,1194.56l-14.7-34.12-14.57,34.12h29.27Z"/>
      <path class="cls-1" d="M882.57,1202.79c0,13.38-10.48,21.17-30.51,21.17h-38.78v-78.01h36.54c18.71,0,28.75,7.92,28.75,20.29,0,8.01-4.01,13.91-10.04,17.15,8.36,2.69,14.04,9.24,14.04,19.39ZM827.76,1157.34v21.5h20.51c10.04,0,15.72-3.57,15.72-10.7s-5.68-10.81-15.72-10.81h-20.51ZM868,1201.34c0-7.79-5.9-11.25-16.82-11.25h-23.42v22.52h23.42c10.92,0,16.82-3.46,16.82-11.27Z"/>
      <path class="cls-1" d="M1033.57,1145.96v78.01h-14.48v-33.43h-40.32v33.43h-14.48v-78.01h14.48v32.2h40.32v-32.2h14.48Z"/>
      <path class="cls-1" d="M1115.18,1184.96c0-23.07,17.83-40.1,42.04-40.1s42,16.93,42,40.1-17.83,40.13-42,40.13-42.04-17.06-42.04-40.13ZM1184.61,1184.96c0-15.94-11.67-27.4-27.38-27.4s-27.43,11.47-27.43,27.4,11.71,27.43,27.43,27.43,27.38-11.49,27.38-27.43Z"/>
      <path class="cls-1" d="M1331.81,1223.97l-15.94-22.85c-1.01.11-1.98.11-2.99.11h-17.61v22.74h-14.48v-78.01h32.09c20.51,0,33.19,10.48,33.19,27.76,0,11.8-5.99,20.49-16.6,24.63l17.96,25.62h-15.63ZM1312.23,1158.22h-16.95v31.1h16.95c12.68,0,19.28-5.81,19.28-15.61s-6.6-15.5-19.28-15.5Z"/>
    </g>
  </g>
  <g>
    <path class="cls-1" d="M959.08,1094.04c-3.41,0-6.88-.47-10.4-1.61-13.18-4.28-20.71-15.92-26.76-25.28-3.2-4.95-6.51-10.07-9.45-12.21-3.02-2.2-8.98-3.8-14.75-5.34-10.69-2.86-23.99-6.43-32.05-17.51-8-10.98-7.33-24.1-6.74-35.67.3-6.02.62-12.24-.57-15.91-1.07-3.31-4.85-7.95-8.51-12.44-7.08-8.7-15.89-19.52-15.89-33.58s8.81-24.89,15.89-33.58c3.65-4.49,7.44-9.14,8.51-12.44,1.19-3.67.88-9.89.57-15.91-.58-11.57-1.25-24.69,6.74-35.68,8.06-11.08,21.36-14.64,32.05-17.51,5.77-1.54,11.73-3.14,14.75-5.34,2.93-2.13,6.24-7.26,9.45-12.21,6.05-9.35,13.58-21,26.76-25.28,12.74-4.14,24.9.51,35.64,4.61,5.73,2.19,11.65,4.45,15.68,4.45s9.96-2.26,15.68-4.45c10.73-4.1,22.88-8.74,35.63-4.61,13.18,4.28,20.71,15.92,26.76,25.28,3.2,4.95,6.51,10.07,9.45,12.21,3.03,2.2,8.99,3.8,14.75,5.35,10.69,2.86,23.99,6.43,32.05,17.5,7.99,10.98,7.33,24.1,6.74,35.68-.3,6.02-.62,12.24.57,15.92,1.07,3.3,4.85,7.95,8.51,12.44,7.08,8.7,15.89,19.52,15.89,33.58s-8.81,24.89-15.89,33.58c-3.65,4.49-7.44,9.14-8.51,12.44-1.19,3.67-.88,9.89-.57,15.91.58,11.57,1.25,24.69-6.74,35.68-8.06,11.07-21.36,14.64-32.05,17.5-5.77,1.55-11.73,3.14-14.76,5.35-2.93,2.13-6.24,7.25-9.45,12.2-6.05,9.35-13.58,21-26.76,25.28-12.74,4.13-24.91-.51-35.63-4.61-5.73-2.19-11.65-4.45-15.68-4.45s-9.95,2.26-15.68,4.45c-7.77,2.97-16.29,6.22-25.24,6.22ZM959.11,804.1c-.55,0-1.02.06-1.42.19-3.31,1.08-7.72,7.89-11.26,13.36-4.43,6.86-9.46,14.63-16.78,19.96-7.41,5.39-16.42,7.8-24.37,9.94-6.25,1.67-14.02,3.76-16.01,6.49-1.92,2.64-1.52,10.62-1.19,17.03.42,8.26.89,17.62-1.96,26.4-2.76,8.49-8.54,15.59-13.64,21.85-4.38,5.38-9.33,11.47-9.33,15.15s4.96,9.78,9.33,15.16c5.1,6.26,10.88,13.36,13.64,21.85,2.85,8.79,2.38,18.15,1.96,26.4-.32,6.41-.73,14.39,1.19,17.02,1.99,2.73,9.76,4.82,16.01,6.49,7.95,2.13,16.96,4.55,24.37,9.94,7.33,5.33,12.35,13.1,16.78,19.96,3.54,5.48,7.95,12.29,11.26,13.36,2.95.95,10.61-1.98,16.21-4.11,7.82-2.98,16.68-6.37,26.09-6.37s18.28,3.38,26.1,6.37c5.6,2.14,13.27,5.07,16.21,4.11,3.32-1.08,7.72-7.89,11.26-13.36,4.44-6.85,9.46-14.63,16.78-19.96,7.41-5.39,16.42-7.81,24.37-9.94,6.25-1.68,14.02-3.76,16.01-6.49,1.92-2.64,1.52-10.62,1.19-17.02-.42-8.26-.89-17.62,1.96-26.4,2.76-8.49,8.54-15.59,13.64-21.85,4.38-5.38,9.33-11.47,9.33-15.16s-4.96-9.78-9.33-15.15c-5.1-6.26-10.88-13.36-13.63-21.85-2.86-8.79-2.38-18.15-1.96-26.41.32-6.41.73-14.39-1.19-17.02-1.99-2.73-9.76-4.81-16.01-6.49-7.95-2.13-16.96-4.55-24.37-9.94-7.33-5.33-12.35-13.1-16.79-19.96-3.54-5.48-7.94-12.29-11.26-13.36-2.93-.96-10.61,1.97-16.21,4.11-7.82,2.99-16.68,6.37-26.1,6.37s-18.28-3.38-26.09-6.37c-4.85-1.85-11.26-4.3-14.79-4.3Z"/>
    <g>
      <path class="cls-1" d="M999.6,1022.43h-.03c-24.09-.31-46.31-9.55-62.55-26.02-15.98-16.2-24.87-37.92-25.03-61.15-.16-23.59,8.96-45.82,25.68-62.59,8.17-8.19,17.69-14.62,28.29-19.11,10.92-4.62,22.44-6.94,34.25-6.89,22.86.1,44.61,9.42,61.25,26.25,8.15,8.24,14.54,17.78,19.01,28.35,4.64,10.98,6.95,22.52,6.86,34.31-.17,22.79-8.93,44.26-24.69,60.45-16.28,16.73-38.66,26.11-63.01,26.41h-.03ZM999.86,851.81c-21.69,0-43.01,8.91-58.54,24.49-15.75,15.79-24.34,36.71-24.18,58.93.32,46.17,35.77,81.45,82.47,82.07,45.98-.59,82.26-36.49,82.59-81.75.16-21.98-8.5-42.94-24.38-59.01-15.67-15.85-36.13-24.63-57.61-24.72-.11,0-.23,0-.34,0Z"/>
      <path class="cls-1" d="M1079.39,889.06c-.1,0-.2,0-.3-.02-5.23-.66-7.41-4.39-9.16-7.38-.15-.27-.31-.53-.47-.79-2.01-3.38-1.91-6.77.31-9.8,2.72-3.73,6.04-6.6,9.87-8.51,2.52-1.26,5.35-2.5,8.67-3.79,6.09-2.37,11.65-4.45,17.02-6.36,1.47-.52,3.77-.41,5.15.82,1.59,1.42,1.18,4.42.21,5.78-1.36,1.9-2.71,3.9-4.01,5.83-4.17,6.17-8.47,12.55-14.42,17.64-2.13,1.83-4.58,3.17-6.94,4.47-.58.32-1.17.64-1.74.97-.99.56-2.03.76-2.86.93-.27.05-.52.1-.71.15-.2.05-.41.08-.61.08ZM1106.12,857.18c-5.06,1.81-10.34,3.78-16.08,6.02-3.17,1.24-5.88,2.42-8.26,3.61-3.14,1.57-5.88,3.94-8.15,7.06-1.08,1.48-1.1,2.8-.06,4.54.16.27.33.55.49.83,1.66,2.85,2.76,4.54,5.23,4.99.17-.04.35-.07.52-.1.54-.11,1.11-.21,1.42-.39.59-.34,1.2-.67,1.8-1,2.25-1.24,4.37-2.4,6.13-3.91,5.45-4.67,9.39-10.51,13.57-16.69,1.1-1.63,2.24-3.32,3.4-4.97Z"/>
      <path class="cls-1" d="M1107.09,1017.66c-.43,0-.85-.06-1.21-.16-3.46-1-7.17-2.11-10.84-3.43l-1.53-.55c-4.58-1.64-9.31-3.33-13.86-5.36-3.8-1.69-7.16-4.58-9.98-8.57-2-2.83-2.35-6-.99-8.92l.23-.49c1.48-3.21,3.33-7.2,8.25-8.36.41-.1.79-.15,1.12-.2.12-.02.24-.03.35-.05.22-.04.45-.04.67-.02,4.58.54,8.65,2.51,11.75,5.69,3.55,3.64,6.84,7.59,10.03,11.41.57.68,1.14,1.37,1.71,2.05,1.71,2.04,3.32,4.18,4.88,6.25.53.7,1.05,1.4,1.58,2.09l.21.27c.52.67,1.17,1.51,1.52,2.57.4,1.23.5,3.12-.54,4.39-.79.95-2.13,1.39-3.34,1.39ZM1079.05,986.34s-.06,0-.09.01c-.26.04-.51.07-.72.12-2.53.6-3.55,2.56-5.01,5.71l-.23.5c-.63,1.36-.45,2.71.56,4.15,2.32,3.28,5.02,5.62,8.02,6.96,4.38,1.95,9.03,3.62,13.53,5.23l1.54.55c3.1,1.11,6.25,2.08,9.25,2.96-.07-.1-.15-.19-.22-.29l-.24-.31c-.54-.7-1.07-1.41-1.6-2.11-1.52-2.02-3.09-4.11-4.72-6.05-.57-.68-1.15-1.37-1.72-2.06-3.13-3.75-6.36-7.62-9.78-11.13-2.26-2.32-5.22-3.78-8.58-4.25Z"/>
      <path class="cls-1" d="M1078.68,1046.06c-.93,0-1.84-.27-2.43-.66-1.93-1.28-3.94-2.54-5.88-3.77-5.76-3.62-11.71-7.36-16.78-12.34-4.01-3.95-6.44-8.05-7.44-12.54-.11-.5-.18-.98-.26-1.54-.04-.27-.08-.57-.14-.92-.07-.44-.02-.89.16-1.3.03-.07.09-.28.13-.44.24-.86.61-2.17,1.74-3.03,2.35-1.81,5.11-3.87,8.13-5.45,3.33-1.73,6.58.59,7.8,1.46,5.76,4.12,8.75,9.91,10.71,14.51,2.01,4.7,3.98,9.51,5.88,14.16.53,1.3,1.07,2.6,1.6,3.9l.12.29c.34.79.75,1.78.72,2.94-.04,1.15-.47,2.77-1.57,3.83-.66.64-1.58.89-2.49.89ZM1050.55,1014.14c.02.14.04.27.06.39.07.5.13.87.2,1.2.8,3.61,2.75,6.84,6.12,10.16,4.7,4.62,10.18,8.06,15.98,11.7,1.61,1.01,3.27,2.05,4.91,3.12-.06-.16-.13-.32-.19-.46l-.14-.33c-.53-1.3-1.07-2.61-1.6-3.91-1.9-4.63-3.86-9.42-5.85-14.09-2.55-5.97-5.35-9.82-9.1-12.5-1.42-1.02-2.32-1.37-2.82-1.11-2.62,1.36-5.12,3.22-7.27,4.88-.07.17-.16.48-.21.67-.03.09-.05.18-.08.27Z"/>
      <path class="cls-1" d="M920.14,889.33c-.28,0-.57-.05-.84-.15-.6-.23-1.17-.42-1.7-.61-1.15-.4-2.23-.78-3.29-1.3-4.46-2.19-8.16-5.22-10.98-9.01-3.41-4.57-6.77-9.28-10.02-13.84-1.08-1.52-2.17-3.03-3.25-4.55-.62-.87-1.05-1.62-1.35-2.38-.62-1.54-.43-3.15.49-4.31.93-1.16,2.47-1.7,4.12-1.44.56.09,1.04.27,1.45.43,2.13.85,4.26,1.69,6.39,2.53,5.17,2.04,10.52,4.15,15.74,6.34,5.3,2.23,9.58,5.65,12.72,10.18,2.55,3.67,1.7,6.74.54,8.66l-.23.38c-1.15,1.92-2.35,3.9-3.94,5.64-1.01,1.11-2.28,1.8-3.4,2.4-.42.23-.83.45-1.18.67-.39.24-.83.37-1.27.37ZM893.84,856.94s.07.09.1.14c1.09,1.52,2.17,3.04,3.26,4.56,3.24,4.54,6.59,9.23,9.96,13.76,2.37,3.18,5.48,5.73,9.25,7.58.8.39,1.71.71,2.77,1.08.24.08.48.17.73.26.14-.07.27-.15.4-.22.86-.47,1.68-.91,2.15-1.43,1.27-1.39,2.29-3.08,3.37-4.88l.23-.39c.49-.82.79-1.8-.37-3.47-2.62-3.77-6.2-6.63-10.65-8.5-5.17-2.18-10.5-4.27-15.64-6.3-1.85-.73-3.71-1.46-5.56-2.2Z"/>
      <path class="cls-1" d="M1000.28,846.31c-7.89,0-11.41-3.53-12.06-11.95-.44-5.7,1-10.95,2.39-16.04l.28-1.02c1.35-4.97,2.95-10.84,4.62-16.73.05-.16.09-.33.13-.51.28-1.14,1.11-4.62,4.68-4.19,2.39.29,3.91,3.18,4.27,4.53,2.47,9.18,4.75,18.28,6.65,25.98.3,1.2.37,2.36.44,3.49,0,.15.02.29.03.43.29.49.41,1.09.29,1.69-.16.79-.3,1.58-.44,2.37-.33,1.86-.68,3.79-1.23,5.69-1.06,3.67-3.97,5.92-7.99,6.19l-.25.02c-.2.01-.4.03-.6.04-.42.02-.82.03-1.22.03ZM1000.07,801.98c-1.65,5.83-3.24,11.65-4.57,16.57l-.28,1.03c-1.34,4.91-2.61,9.54-2.23,14.41.48,6.23,2.19,7.78,8.31,7.52.15,0,.3-.02.44-.03l.29-.02c2.67-.18,3.4-1.65,3.72-2.75.48-1.66.79-3.38,1.11-5.2.08-.47.17-.94.25-1.4-.04-.14-.07-.28-.08-.43-.05-.52-.08-1.03-.12-1.52-.06-.96-.12-1.86-.31-2.64-1.87-7.58-4.11-16.52-6.53-25.54Z"/>
      <path class="cls-1" d="M1058.78,866.8c-.25,0-.51-.04-.76-.12-4.09-1.36-8.63-3.38-11.26-7.96-1.16-2.03-.74-4.8-.18-6.77,1.87-6.6,6.75-10.9,10.78-13.91,5.88-4.38,11.96-8.67,17.84-12.81l.95-.67c1.02-.71,3.23-1.46,4.87-.43,1.3.82,1.61,2.31,1.82,3.29.03.12.05.24.08.35.26,1.12-.16,2.12-.36,2.61-.94,2.24-1.88,4.53-2.79,6.75-2.38,5.82-4.84,11.83-7.63,17.62-1.5,3.12-3.96,5.61-6.34,8.02-.35.35-.7.71-1.04,1.06-1.12,1.15-2.58,1.74-3.75,2.22-.43.17-.83.34-1.16.5-.34.17-.7.26-1.07.26ZM1077.89,829.19c-5.84,4.11-11.87,8.35-17.67,12.68-3.65,2.72-7.57,6.2-9.05,11.39-.5,1.76-.39,2.86-.27,3.09,1.38,2.4,3.66,4.03,7.76,5.5.19-.08.37-.15.56-.23.84-.34,1.71-.69,2.12-1.12.35-.36.71-.72,1.07-1.09,2.1-2.13,4.28-4.33,5.44-6.74,2.72-5.65,5.16-11.6,7.51-17.35.82-2.01,1.67-4.09,2.53-6.14Z"/>
      <path class="cls-1" d="M999.76,1073.12c-1.77,0-3.24-1.62-3.69-2.77-.64-1.62-1.08-3.28-1.51-4.88l-.07-.27c-.56-2.07-1.15-4.19-1.73-6.23-1.5-5.34-3.06-10.85-4.15-16.41-.8-4.09-.06-8.55.53-12.14.52-3.14,2.46-6.97,8.77-7.37.17-.01.33-.01.5-.02h.17c8.86-.26,12.38,2.96,13,11.88.04.64.07,1.28.1,1.92.01.29.03.59.04.88,0,.06,0,.11,0,.17-.11,6.04-1.77,11.72-3.37,17.21l-.27.93c-1.08,3.71-2.17,7.41-3.27,11.11l-.41,1.37c-.03.11-.06.22-.09.34-.15.6-.35,1.43-.96,2.17-1.11,1.33-2.23,2.02-3.42,2.1-.06,0-.13,0-.19,0ZM999.21,1068.46h0ZM999.74,1027.8c-.32,0-.66,0-1.02.02h-.23c-.09,0-.19,0-.28.01-3.19.2-4.05,1.5-4.36,3.38-.56,3.38-1.19,7.2-.55,10.45,1.05,5.37,2.58,10.79,4.06,16.03.58,2.06,1.18,4.18,1.74,6.28l.07.27c.25.92.48,1.8.75,2.66l.33-1.11c1.09-3.69,2.18-7.39,3.26-11.09l.27-.94c1.57-5.4,3.06-10.5,3.18-15.88-.01-.27-.03-.55-.04-.82-.03-.6-.06-1.21-.1-1.81-.41-5.94-1.72-7.46-7.08-7.46Z"/>
      <path class="cls-1" d="M920.26,1045.91c-.5,0-.99-.16-1.41-.46-.54-.39-.89-.99-.96-1.64-.03-.22-.09-.51-.16-.81-.23-1.01-.53-2.28-.01-3.58,2.71-6.89,5.88-14.9,9.29-22.67,1.81-4.12,4.62-7.75,8.34-10.78,3.49-2.84,7.39-3.11,10.97-.76,1.99,1.3,3.77,2.51,5.36,4.03,1.02.97,1.55,2.19,1.91,3,.06.15.15.35.19.41.22.4.32.86.29,1.31-.35,5.3-2.54,8.89-4.63,11.7-3.36,4.5-7.75,7.67-11.6,10.28-1.2.81-2.39,1.63-3.58,2.44-3.16,2.16-6.42,4.39-9.69,6.51-1.03.67-2.16.78-3.07.88-.29.03-.57.06-.78.1-.15.03-.3.04-.45.04ZM941.34,1008.39c-.96,0-1.93.43-2.98,1.28-3.13,2.55-5.48,5.57-6.98,9-3.28,7.49-6.36,15.22-9.01,21.95,3.09-2.01,6.19-4.13,9.19-6.18,1.2-.82,2.39-1.64,3.59-2.45,4.38-2.97,7.84-5.67,10.46-9.18,1.93-2.59,3.29-5.06,3.65-8.56-.01-.03-.03-.06-.04-.09-.21-.49-.51-1.16-.83-1.46-1.31-1.25-2.89-2.32-4.68-3.49-.82-.54-1.59-.81-2.36-.81Z"/>
      <path class="cls-1" d="M1041.38,1064.78c-1.63,0-3.26-1.31-3.81-2.08l-2.2-3.08c-4.47-6.25-9.09-12.71-13.41-19.23-2.02-3.05-3.06-6.78-3.26-11.76-.18-4.45,1.39-6.99,5.41-8.76,1.31-.58,2.75-1.09,4.54-1.62,4.51-1.34,7.5-.39,10.33,3.29,2.83,3.68,4.56,8.23,5.28,13.91.51,4,.85,8.07,1.17,12,.14,1.71.29,3.42.44,5.13.05.49-.06.98-.31,1.41,0,.29,0,.57.01.86.03,1.78.05,3.61-.1,5.46-.15,1.8-1.5,3.39-2.7,4.1-.45.27-.93.38-1.4.38ZM1032.13,1022.43c-.58,0-1.26.14-2.12.4-1.59.47-2.85.92-3.97,1.42-2.24.99-2.67,1.69-2.57,4.2.17,4.07.95,7.03,2.47,9.31,4.28,6.45,8.88,12.88,13.32,19.09l1.53,2.14c.06-1.32.04-2.66.02-4.07-.01-.7-.02-1.39-.02-2.09,0-.36.08-.71.23-1.02-.12-1.32-.23-2.64-.34-3.96-.32-3.88-.66-7.89-1.15-11.79-.61-4.82-2.03-8.61-4.33-11.6-1.1-1.43-1.87-2.02-3.07-2.02Z"/>
      <path class="cls-1" d="M893.11,1017.45c-1.01,0-2.06-.29-2.74-.67-.94-.53-1.28-1.26-1.41-1.78-.32-1.35-.16-3.35.89-4.76.82-1.1,1.63-2.2,2.45-3.3,3.76-5.07,7.65-10.31,11.82-15.22,2.46-2.89,5.73-5.61,9.45-7.85,3.55-2.14,6.42-2.79,9.04-2.06,2.67.74,4.86,2.88,6.9,6.74.63,1.2,1.08,2.44,1.51,3.64.19.52.38,1.05.58,1.57.23.58.22,1.22-.02,1.8-.16.37-.3.75-.44,1.15-.35.96-.72,1.95-1.33,2.89-2.93,4.5-7.12,7.79-12.45,9.78-6.85,2.56-13.9,4.88-20.72,7.12l-2.26.74c-.39.13-.83.19-1.27.19ZM920.51,986.31c-1.16,0-2.63.55-4.48,1.66-3.28,1.97-6.14,4.34-8.27,6.85-4.07,4.79-7.91,9.97-11.62,14.97-.61.83-1.23,1.65-1.84,2.48l.85-.28c6.77-2.22,13.78-4.53,20.54-7.05,4.36-1.63,7.77-4.29,10.12-7.92.32-.49.57-1.16.85-1.94.05-.15.11-.29.16-.44-.1-.27-.2-.54-.29-.81-.39-1.09-.77-2.13-1.24-3.03-1.37-2.58-2.66-4.01-3.96-4.38-.25-.07-.53-.11-.82-.11Z"/>
      <path class="cls-1" d="M1032.22,851.67c-1.22,0-2.56-.23-4.04-.7l-.15-.05c-.47-.15-.96-.3-1.47-.49-7.03-2.64-9.05-6.54-7.22-13.94,1.2-4.83,3.74-8.96,6.31-12.69,2.74-3.98,5.46-7.98,8.19-11.97l3.49-5.13c.16-.3.5-.92,1.22-1.34.15-.09.3-.19.46-.3.86-.58,2.16-1.46,3.68-.97,1.7.54,2.93,2.63,3.01,4.25.11,2.37.09,4.75.08,7.05,0,.41,0,.82,0,1.23.31.46.47,1.03.4,1.62-.22,1.84-.41,3.73-.6,5.56-.46,4.51-.94,9.16-1.79,13.73-.67,3.6-2.59,7.01-4.19,9.57-1.93,3.09-4.28,4.58-7.37,4.58ZM1040.97,809.84l-3.19,4.68c-2.73,4-5.45,7.99-8.19,11.98-2.67,3.89-4.65,7.28-5.61,11.14-1.25,5.06-.5,6.54,4.26,8.32.38.14.79.27,1.22.4l.15.05c3.13.98,4.41.58,5.93-1.86,1.38-2.21,3.02-5.1,3.54-7.91.81-4.37,1.28-8.93,1.73-13.34.14-1.4.29-2.84.45-4.27-.18-.34-.28-.72-.28-1.12,0-.85,0-1.7.01-2.56.01-1.81.03-3.68-.02-5.51Z"/>
      <path class="cls-1" d="M958.09,1064.75c-.23,0-.46-.03-.68-.1-.64-.19-1.18-.64-1.47-1.25-.1-.22-.26-.47-.42-.74-.5-.83-1.12-1.86-1.2-3.15-.14-2.27-.11-4.53-.09-6.91,0-.95.02-1.92.02-2.94,0-.03,0-.06,0-.09.02-.54.04-1.09.06-1.64.24-6.76.49-13.75,3.26-20.62,2.09-5.16,4.33-7.96,7.27-9.07,3.51-1.32,7.36,0,12.42,2.54,4.44,2.23,3.94,7.11,3.75,8.94-.53,5.17-2.47,10.2-5.75,14.93-4.39,6.33-8.84,12.38-12.61,17.46-.74,1-1.78,1.51-2.62,1.91-.27.13-.53.26-.72.37-.38.23-.8.34-1.24.34ZM959.03,1049.71c0,1.01,0,1.99-.02,2.94-.02,2.2-.04,4.28.07,6.29,3.69-4.98,8.02-10.86,12.27-17,2.82-4.06,4.48-8.34,4.93-12.7.3-2.89-.17-3.7-1.14-4.19-3.8-1.91-6.72-3.04-8.59-2.34-1.55.58-3.03,2.67-4.53,6.39-2.46,6.09-2.69,12.65-2.92,19-.02.54-.04,1.07-.06,1.61Z"/>
      <path class="cls-1" d="M1102.4,947.61c-.13,0-.26-.01-.39-.03-.66-.11-1.32-.2-1.98-.3-1.57-.22-3.19-.45-4.81-.88-3.81-1.01-6.21-3.72-6.58-7.45-.26-2.6-.24-5.09.04-7.41.47-3.78,2.9-6.48,6.84-7.6,5.48-1.56,10.74-.46,15.24.7,7.36,1.89,14.68,3.83,21.54,5.66,1.12.3,2.07.74,2.8,1.32,1.44,1.13,1.74,2.39,1.74,3.24,0,.87-.31,2.14-1.79,3.29-.54.42-1.19.77-1.88,1.02-1.39.49-2.78,1-4.17,1.51-7.06,2.57-14.36,5.23-22.1,6.36-1.02.15-2.03.22-3,.28-.14,0-.28.02-.42.03-.33.17-.7.27-1.09.27ZM1101.27,927.94c-1.47,0-2.95.17-4.43.59-2.76.79-3.27,2.43-3.41,3.6-.24,1.96-.25,4.1-.03,6.34.17,1.73,1.17,2.81,3.05,3.31,1.35.36,2.76.56,4.26.77.38.05.76.11,1.14.16.13-.03.26-.06.4-.07.45-.04.9-.07,1.34-.1.92-.06,1.79-.12,2.63-.24,7.26-1.06,14.33-3.63,21.16-6.12,1.2-.44,2.4-.87,3.6-1.3-6.83-1.82-14.1-3.74-21.4-5.62-2.68-.69-5.48-1.32-8.31-1.32ZM1132.25,935.45h0ZM1132.23,934.28h0Z"/>
      <path class="cls-1" d="M1095.34,916.31h-.02c-3.7-.03-8.19-.69-10.04-5.58-.89-2.35-1.48-4.46-1.83-6.47-.61-3.54.78-6.73,3.9-8.98,3.67-2.64,8.12-4.07,14-4.5,4.82-.35,9.72-.6,14.45-.85,2.27-.12,4.54-.23,6.82-.36.24-.01.53-.06.83-.1.74-.11,1.65-.24,2.63-.07,1.29.22,2.94,1.09,3.69,2.51.91,1.73-.12,4.06-1.25,4.97-1.09.87-2.18,1.75-3.26,2.63-6.67,5.42-13.57,11.02-21.87,14.56-2.15.92-4.39,1.44-6.02,1.82-.55.13-1.03.24-1.38.34-.21.06-.43.09-.64.09ZM1124.25,894.17s-.07.01-.1.02c-.38.06-.8.12-1.25.14-2.28.13-4.56.25-6.84.36-4.71.24-9.58.49-14.35.84-5.03.37-8.59,1.48-11.55,3.61-2.17,1.56-2.17,3.2-1.98,4.3.29,1.7.81,3.53,1.59,5.59.48,1.26,1.25,2.4,5.29,2.49.37-.09.78-.19,1.24-.3,1.54-.36,3.47-.8,5.23-1.56,7.68-3.28,14.02-8.43,20.74-13.88.67-.54,1.33-1.08,2-1.62ZM1125.66,894.29h0Z"/>
      <path class="cls-1" d="M1114.33,981.26c-.1,0-.2,0-.3-.02-1.81-.22-3.62-.44-5.44-.65-4.7-.55-9.55-1.13-14.32-1.88-1.81-.28-3.41-1.15-4.82-1.91-.49-.26-.95-.51-1.4-.73-.86-.42-1.53-1.05-2.07-1.62-4.48-4.71-2.77-9.91-1.4-14.08l.11-.33c.71-2.18,2.84-5.78,9.06-5.78.12,0,.25,0,.38,0,4.24.1,8.44,1.5,12.84,4.29,3.71,2.35,7.38,4.87,10.92,7.31,1.49,1.03,2.99,2.06,4.49,3.07.48.32.97.64,1.45.96,1.3.85,2.65,1.73,3.91,2.79.95.8,1.38,1.86,1.72,2.72.11.27.21.52.31.71.29.58.34,1.25.13,1.86-.21.61-.66,1.11-1.25,1.39-.2.09-.44.23-.69.38-.8.47-1.79,1.05-3.04,1.1-2.58.11-5.19.1-7.7.08-.56,0-1.13,0-1.69-.01-.36.21-.77.33-1.21.33ZM1093.75,959.06c-3.71,0-4.3,1.8-4.52,2.49l-.11.33c-1.36,4.12-2.07,6.78.33,9.3.4.42.59.56.68.61.55.26,1.08.55,1.59.83,1.18.64,2.29,1.24,3.3,1.39,4.68.73,9.49,1.3,14.14,1.85,1.42.17,2.84.34,4.26.51.3-.13.62-.2.97-.2.96,0,1.92,0,2.88.01,2.34.02,4.75.03,7.11-.06-.96-.77-2.02-1.46-3.14-2.19-.51-.33-1.02-.67-1.53-1.01-1.51-1.02-3.01-2.06-4.52-3.09-3.51-2.41-7.13-4.91-10.77-7.21-3.65-2.31-7.05-3.48-10.39-3.55-.09,0-.18,0-.27,0Z"/>
      <path class="cls-1" d="M967.48,851.42c-2.1,0-4.49-.85-6.68-3.61-2.86-3.59-4.64-8.07-5.3-13.32-.46-3.64-.77-7.33-1.07-10.9-.13-1.56-.26-3.11-.4-4.67-.04-.44.04-.86.21-1.23,0-.56,0-1.11-.01-1.67-.02-2.33-.04-4.73.08-7.13.07-1.27.68-2.26,1.17-3.07.16-.25.3-.49.4-.69.29-.6.82-1.04,1.46-1.23.64-.19,1.32-.1,1.9.24.18.11.43.23.7.35.86.4,1.94.9,2.67,1.96,4.39,6.33,9.07,13.14,13.5,19.98,2.97,4.58,4.53,9.05,4.78,13.68.27,4.95-1.34,7.47-5.93,9.29-.97.39-1.95.68-2.89.97-.6.18-1.16.35-1.71.54-.85.29-1.84.51-2.89.51ZM958.87,819.51c.11,1.23.21,2.46.32,3.69.3,3.52.6,7.17,1.05,10.71.55,4.42,1.96,8,4.3,10.94,1.66,2.09,3.04,1.98,4.29,1.56.63-.22,1.26-.41,1.87-.59.89-.27,1.72-.52,2.51-.83,2.69-1.07,3.08-1.67,2.92-4.59-.2-3.77-1.52-7.48-4.02-11.34-4.27-6.6-8.79-13.18-13.05-19.33-.09,2.08-.07,4.21-.05,6.28,0,.9.02,1.8.02,2.7,0,.29-.05.56-.15.82Z"/>
      <path class="cls-1" d="M940.71,866.43c-1.51,0-3.05-.5-4.52-1.5-3.99-2.71-7.09-6.51-9.2-11.3-2.44-5.55-4.71-11.27-6.9-16.8-.78-1.97-1.56-3.93-2.34-5.9-.35-.87-.72-2.02-.51-3.22.16-.88.61-2.51,1.83-3.55,1.54-1.3,3.95-.47,4.9.26,1.69,1.29,3.38,2.58,5.08,3.87,5.85,4.45,11.9,9.06,17.66,13.86,4.29,3.57,6.59,8.01,7.05,13.58.04.51-.08,1.01-.35,1.45-.06.1-.17.32-.27.53-.42.86-1.07,2.15-2.19,3.12-2.07,1.79-4.41,3.26-6.44,4.5-1.22.74-2.51,1.11-3.81,1.11ZM922.13,829.02s.03.09.05.14c.79,1.97,1.57,3.94,2.35,5.92,2.17,5.49,4.42,11.17,6.83,16.64,1.74,3.96,4.27,7.08,7.51,9.27,1.5,1.02,2.44.7,3.17.26,1.87-1.14,4.02-2.49,5.8-4.04.39-.34.75-1.06,1.03-1.63.02-.05.05-.09.07-.14-.47-3.95-2.16-7.02-5.28-9.62-5.68-4.73-11.69-9.3-17.5-13.72-1.35-1.02-2.69-2.05-4.04-3.08Z"/>
      <path class="cls-1" d="M879.7,980.93c-1.7,0-3.42-.02-5.13-.09-1.75-.08-3.66-1.24-4.44-2.7-1.06-1.99.66-4.59,1.88-5.43l1.15-.79c6.98-4.8,14.21-9.77,21.48-14.42,3.47-2.22,7.64-3.33,12.06-3.24,3.89.08,6.68,2.01,7.84,5.43.81,2.37,1.41,4.82,1.78,7.27.57,3.76-1.12,7.05-4.77,9.26-5.23,3.18-11.11,3.88-15.65,4.14-2.44.14-4.88.1-7.25.07-.55,0-1.1-.02-1.66-.02-.41.32-.92.51-1.48.51-.97,0-1.93,0-2.9.01-.96,0-1.94.01-2.92.01ZM875.5,976.09c2.33.08,4.75.06,7.09.05.48,0,.96,0,1.44,0,.41-.33.93-.52,1.49-.52,1.07,0,2.13.01,3.2.03,2.28.03,4.64.06,6.91-.06,4.23-.24,9.13-.83,13.44-3.45,2.6-1.58,2.72-3.22,2.53-4.46-.33-2.18-.86-4.35-1.58-6.45-.34-.99-1.03-2.14-3.43-2.19-3.47-.08-6.71.79-9.38,2.49-7.21,4.61-14.4,9.55-21.35,14.33l-.36.25Z"/>
      <path class="cls-1" d="M896.83,947.37c-2.64,0-5.41-.41-8.34-1.23-5.2-1.45-10.42-3.09-15.47-4.68-1.89-.59-3.79-1.19-5.68-1.77-.67-.21-1.68-.52-2.45-1.35-.73-.8-1.96-2.13-1.71-3.83.2-1.4,1.19-2.32,1.9-3,.09-.08.17-.16.25-.24.68-.66,1.49-.84,1.97-.95.06-.01.12-.03.17-.04,2.07-.56,4.15-1.13,6.22-1.69,5.43-1.49,11.05-3.02,16.63-4.4,3.01-.74,6.12-1.09,9.01-1,4.35.13,7.28,1.18,9.23,3.32,1.85,2.02,2.64,4.85,2.42,8.64,0,.17,0,.35,0,.52,0,.48.01.98-.01,1.51-.27,4.96-2.4,7.7-7.14,9.14-2.26.69-4.58,1.03-7.01,1.03ZM868.35,935c.12.04.28.09.4.13,1.9.59,3.8,1.18,5.7,1.78,5.01,1.57,10.2,3.2,15.32,4.63,4.71,1.32,8.85,1.39,12.67.23,2.83-.86,3.61-1.86,3.77-4.83.02-.37.01-.76,0-1.18,0-.22,0-.44,0-.66,0-.05,0-.1,0-.15.15-2.44-.25-4.19-1.18-5.21-1.01-1.1-2.92-1.68-5.84-1.77-2.46-.07-5.13.23-7.72.87-5.52,1.36-11.11,2.89-16.51,4.37-2.08.57-4.16,1.14-6.24,1.7-.11.03-.24.06-.36.09,0,0,0,0,0,0Z"/>
      <path class="cls-1" d="M905.52,916.24c-.25,0-.5,0-.75-.02-4.99-.22-9.74-1.9-14.12-5.01-6.89-4.89-13.65-9.99-18.77-13.88-1.09-.83-1.47-2.08-1.75-2.99-.08-.27-.16-.53-.24-.71-.26-.61-.26-1.3.01-1.91.27-.61.78-1.07,1.4-1.29.19-.07.42-.17.67-.28.77-.34,1.72-.76,2.86-.74,2.54.03,5.09.18,7.56.31.46.03.93.05,1.39.08.48-.32,1.05-.45,1.63-.38l3.67.47c5.28.67,10.56,1.35,15.84,2.03.6.08,1.1.26,1.49.41l.14.05c4.82,1.75,7.65,3.98,8.91,7,1.32,3.18.8,6.97-1.69,12.31-1.41,3.02-4.18,4.54-8.25,4.54ZM875.65,894.21c4.97,3.78,11.31,8.54,17.76,13.12,3.62,2.56,7.51,3.96,11.57,4.13,3.14.14,4.02-.82,4.47-1.77,1.85-3.96,2.36-6.65,1.61-8.46-.7-1.68-2.7-3.1-6.13-4.35l-.17-.06c-.15-.06-.38-.14-.46-.15-5.27-.68-10.55-1.36-15.83-2.03l-2.26-.29c-.38.21-.82.33-1.29.3-.93-.05-1.87-.1-2.8-.15-2.13-.12-4.32-.24-6.47-.29Z"/>
    </g>
  </g>
</svg>