<?xml version="1.0" encoding="UTF-8"?>
<svg id="Layer_2" data-name="Layer 2" xmlns="http://www.w3.org/2000/svg" viewBox="0 0 1728.41 1469.43">
  <defs>
    <style>
      .cls-1 {
        fill: #fff;
      }
    </style>
  </defs>
  <g id="Layer_1-2" data-name="Layer 1">
    <g>
      <g>
        <path class="cls-1" d="M526.92,1007.17l-18.12-105.22h87.1l-89.19-52.26,112.89-174.9,154,42.51-51.57,95.47-135.18-37.63,176.99,103.13v-.35l33.45,129.26h-270.37Z"/>
        <path class="cls-1" d="M843.76,1009.26v-336.57l-27.18-101.74,122.64-33.45,27.18,101.74-17.42,4.88v335.87l-105.22,29.27Z"/>
        <path class="cls-1" d="M1117.17,982.09l-148.66-39.72v-145.64l13.26-105.52,43.88,11.45,203.47,55.75-10.45,350.5-105.22,28.57v-185.36l3.72,29.96ZM1073.74,891.5l39.72,11.15v-66.2l-39.72-11.15v66.2Z"/>
        <path class="cls-1" d="M1212.49,1007.17v-103.13l312.79-27.18-245.28-23.69,9.76-104.52,292.67,27.18,19.51,199.29-389.44,32.05Z"/>
        <path class="cls-1" d="M1570.92,603.01l-9.76-39.02,44.6-11.85-40.42-11.15,11.85-36.93,12.54-40.42,74.56,1.39-9.76,41.11-65.5-2.09,76.65,21.6-2.79,11.15,20.21-5.57,9.76,39.02-121.95,32.75ZM1605.76,1009.26v-277.34l-27.18-101.74,122.64-33.45,27.18,101.74-17.42,4.88v276.64l-105.22,29.27Z"/>
      </g>
      <polygon class="cls-1" points="1483.39 1094.45 1465.89 1027.22 1534.04 1009.26 1551.54 1075.57 1483.39 1094.45"/>
      <g>
        <polygon class="cls-1" points="358.19 1251.22 358.19 1251.22 461.28 695.77 940.63 447.47 976.31 294.9 346.23 621.27 358.19 1251.22"/>
        <polygon class="cls-1" points="305.42 1174.66 305.42 1174.66 306.27 609.72 732.77 278.77 740.24 122.26 179.64 557.28 305.42 1174.66"/>
        <polygon class="cls-1" points="235.45 1113.72 235.45 1113.72 134.03 557.96 493.58 155.28 472.6 0 0 529.31 235.45 1113.72"/>
      </g>
      <path class="cls-1" d="M860.9,1328.24l-.97-301.26,79.53-19.8-5.2,246.12,13.02,53.19-86.38,21.75Z"/>
      <path class="cls-1" d="M760.64,1469.43l5.95-281.73,79.53-19.8-5.95,281.73-79.53,19.8Z"/>
      <path class="cls-1" d="M946.96,1306.67l-18.55-76.95,35.85-9.07,1.68-68.59,79.59-19.53,2.1,149.37-100.68,24.77Z"/>
      <polygon class="cls-1" points="976.51 1368.9 968.59 1318.45 1019.75 1310.25 1027.74 1360.04 976.51 1368.9"/>
      <g>
        <path class="cls-1" d="M1133.35,1263.09h-17.08v-68.39l13.09-12.87h35.51v81.26h-17.03v-26.69h-14.5v26.69ZM1147.85,1220.94v-23.66h-14.5v23.66h14.5Z"/>
        <path class="cls-1" d="M1180.05,1237.8h17.03v9.89h9.44v-41.92h17.03v46.13l-11.97,11.18h-31.52v-25.29ZM1223.55,1181.83v19.44h-17.03v-19.44h17.03Z"/>
        <path class="cls-1" d="M1268.46,1263.09h-15.51l-13.99-81.26h16.58l7.31,48.44,8.71-48.44h11.8l8.71,48.44,7.31-48.44h16.58l-13.99,81.26h-15.51l-8.99-50.35-8.99,50.35Z"/>
        <path class="cls-1" d="M1348.04,1263.09h-17.08v-68.39l13.09-12.87h35.51v81.26h-17.03v-26.69h-14.5v26.69ZM1362.53,1220.94v-23.66h-14.5v23.66h14.5Z"/>
        <path class="cls-1" d="M1410.64,1263.09h-17.08v-68.39l13.09-12.87h35.51v81.26h-17.03v-26.69h-14.5v26.69ZM1425.14,1220.94v-23.66h-14.5v23.66h14.5Z"/>
        <path class="cls-1" d="M1507.03,1263.09h-17.03v-69.79l12.31-11.46h34.84v60.63h-30.12v20.62ZM1520.13,1226.9v-29.61h-13.09v29.61h13.09Z"/>
        <path class="cls-1" d="M1569.08,1263.09h-17.08v-68.39l13.09-12.87h35.51v81.26h-17.03v-26.69h-14.5v26.69ZM1583.58,1220.94v-23.66h-14.5v23.66h14.5Z"/>
        <path class="cls-1" d="M1646.24,1263.09l-10.11-29.39h-4.5v29.39h-17.03v-69.79l12.36-11.46h34.78v51.64h-9.22l10.79,29.61h-17.08ZM1644.73,1218.47v-21.18h-13.09v21.18h13.09Z"/>
        <path class="cls-1" d="M1728.41,1218.08v45.01h-17.03v-29.67h-17.14v29.67h-17.03v-81.26h17.03v36.24h1.12l15.96-36.24h16.97l-15.57,36.24h15.68Z"/>
      </g>
      <path class="cls-1" d="M494.64,1342.46h-.51l-87.03-23.92,19.34-73.8,76.35,19.85,193.41-17.81-186.28-17.81-11.2-130.3,196.97-42.75,14.25,79.91-2.55.51-145.57,20.36,177.12,16.8,13.23,144.55-257.54,24.43Z"/>
    </g>
  </g>
</svg>