<?xml version="1.0" encoding="UTF-8"?>
<svg id="Layer_1" data-name="Layer 1" xmlns="http://www.w3.org/2000/svg" viewBox="0 0 2000 2000">
  <defs>
    <style>
      .cls-1 {
        fill: #fff;
      }
    </style>
  </defs>
  <g id="Layer_1-2" data-name="Layer 1-2">
    <g>
      <g>
        <path class="cls-1" d="M198.19,1477.57v-62.08h-24.05v-10.57h60.91l-1.62,10.57h-22.44v62.08h-12.83.03Z"/>
        <path class="cls-1" d="M296.15,1405.65l12.83-1.62v73.5h-12.83v-31.83h-37.94v31.83h-12.83v-71.92l12.83-1.62v31.1h37.94v-29.48.03Z"/>
        <path class="cls-1" d="M380.02,1478.42l-6.52-16.68h-34.95l-6.2,15.8h-13.24l29.6-72.45,14.95-1.62,29.16,73.18-12.83,1.7.03.06ZM342.73,1451.17h26.61l-13.24-33.98-13.36,33.98Z"/>
        <path class="cls-1" d="M453.76,1405.65l12.83-1.62v73.5h-12.83v-31.83h-37.94v31.83h-12.83v-71.92l12.83-1.62v31.1h37.94v-29.48.03Z"/>
        <path class="cls-1" d="M537.63,1478.42l-6.52-16.68h-34.95l-6.2,15.8h-13.24l29.6-72.45,14.95-1.62,29.16,73.18-12.83,1.7.03.06ZM500.34,1451.17h26.61l-13.24-33.98-13.36,33.98Z"/>
        <path class="cls-1" d="M590.84,1404.92c17.94,0,26.93,6.49,26.93,19.44,0,3.64-.91,6.84-2.73,9.6-1.82,2.79-4.49,4.79-8.08,5.99,4.35.94,7.58,2.91,9.72,5.99,2.14,3.05,3.2,6.75,3.2,11.1,0,7.05-2.2,12.25-6.58,15.53-4.38,3.32-10.98,4.96-19.82,4.96h-32.92v-72.65h30.25l.03.03ZM590.31,1435.46c4.76,0,8.37-.7,10.78-2.14,2.41-1.44,3.64-4.02,3.64-7.81s-1.2-6.4-3.64-7.84c-2.44-1.47-6.02-2.2-10.78-2.2h-16.89v19.97h16.89v.03ZM573.43,1445.5v21.47h19.56c4.64,0,8.11-.82,10.42-2.47,2.32-1.64,3.47-4.38,3.47-8.22s-1.15-6.7-3.47-8.34c-2.32-1.64-5.79-2.47-10.42-2.47h-19.56v.03Z"/>
        <path class="cls-1" d="M716.5,1472.55c-7.25,4.05-15.39,6.08-24.37,6.08-11.25,0-20.38-3.38-27.4-10.16-7.02-6.75-10.51-15.86-10.51-27.25s3.52-20.47,10.57-27.25c7.05-6.75,16.36-10.16,27.9-10.16,9.19,0,17.3,2.03,24.37,6.08l-2.14,11.22c-6.7-4.49-14.01-6.72-21.91-6.72s-13.98,2.38-18.65,7.11c-4.67,4.73-6.99,11.31-6.99,19.7s2.32,14.89,6.96,19.65c4.64,4.79,10.69,7.17,18.18,7.17,9.1,0,17.12-2.35,24.05-7.05v11.54l-.06.06Z"/>
        <path class="cls-1" d="M783.69,1478.42l-6.52-16.68h-34.95l-6.2,15.8h-13.24l29.6-72.45,14.95-1.62,29.16,73.18-12.83,1.7.03.06ZM746.39,1451.17h26.61l-13.24-33.98-13.36,33.98Z"/>
        <path class="cls-1" d="M837.75,1404.92c8.84,0,15.71,2.2,20.62,6.58,4.9,4.38,7.37,10.19,7.37,17.47s-2.47,13.19-7.37,17.59c-4.9,4.38-11.78,6.58-20.62,6.58h-18.27v24.46h-12.83v-72.65h31.1v-.03ZM837.22,1442.51c4.64,0,8.34-1.17,11.16-3.52,2.82-2.35,4.23-5.7,4.23-10.04s-1.41-7.66-4.23-9.98-6.55-3.47-11.16-3.47h-17.74v27.05h17.74v-.03Z"/>
        <path class="cls-1" d="M889.99,1477.57h-12.83v-71.92l12.83-1.62v73.53Z"/>
        <path class="cls-1" d="M924.53,1477.57v-62.08h-24.05v-10.57h60.91l-1.62,10.57h-22.44v62.08h-12.83.03Z"/>
        <path class="cls-1" d="M1025.17,1478.42l-6.52-16.68h-34.95l-6.2,15.8h-13.24l29.6-72.45,14.95-1.62,29.16,73.18-12.83,1.7.03.06ZM987.87,1451.17h26.61l-13.24-33.98-13.36,33.98Z"/>
        <path class="cls-1" d="M1048.13,1477.57v-71.92l12.83-1.62v62.93h37.94l1.62,10.57h-52.36l-.03.03Z"/>
        <path class="cls-1" d="M1184.48,1478.63l-20.41-28.22h-15.18v27.13h-12.83v-72.65h31.63c8.69,0,15.27,1.94,19.7,5.76,4.46,3.85,6.67,9.49,6.67,16.89,0,5.55-1.47,10.16-4.43,13.77-2.97,3.64-7.14,6.05-12.57,7.25l20.73,28.43-13.36,1.62.06.03ZM1148.89,1439.83h17.41c9.75,0,14.62-4.08,14.62-12.28s-4.87-12.07-14.62-12.07h-17.41v24.37-.03Z"/>
        <path class="cls-1" d="M1208.73,1477.57v-72.65h51.07v10.57h-38.26v19.65h34.51l1.62,10.57h-36.12v21.26h39.32v10.57h-52.15l.03.03Z"/>
        <path class="cls-1" d="M1328.4,1478.42l-6.52-16.68h-34.95l-6.2,15.8h-13.24l29.6-72.45,14.95-1.62,29.16,73.18-12.83,1.7.03.06ZM1291.11,1451.17h26.61l-13.24-33.98-13.36,33.98Z"/>
        <path class="cls-1" d="M1351.37,1477.57v-71.92l12.83-1.62v62.93h37.94l1.62,10.57h-52.36l-.03.03Z"/>
        <path class="cls-1" d="M1439.32,1477.57v-72.65h51.07v10.57h-38.26v19.65h34.51l1.62,10.57h-36.12v21.26h39.32v10.57h-52.15l.03.03Z"/>
        <path class="cls-1" d="M1501.6,1461.01c7.4,4.7,15.71,7.05,24.9,7.05,4.55,0,8.37-.79,11.42-2.35,3.05-1.56,4.58-4.14,4.58-7.69,0-2.41-1-4.49-3-6.2-2-1.7-4.46-3.02-7.43-3.96-2.97-.91-6.17-2.03-9.6-3.32-3.47-1.29-6.67-2.64-9.63-4.05-2.97-1.41-5.43-3.58-7.43-6.46-2-2.88-3-6.31-3-10.31,0-6.7,2.41-11.69,7.25-14.95,4.85-3.29,10.89-4.9,18.18-4.9,8.75,0,17.41,2.03,25.96,6.08l-1.62,11.34c-7.75-4.55-15.36-6.84-22.76-6.84-9.34,0-14.01,2.88-14.01,8.66,0,2.2,1,4.11,3,5.73,2,1.62,4.46,2.82,7.43,3.7,2.97.85,6.17,1.94,9.6,3.2,3.47,1.29,6.67,2.64,9.6,4.11,2.97,1.47,5.43,3.67,7.43,6.64,2,2.97,3,6.46,3,10.51s-.76,7.22-2.29,10.1c-1.53,2.88-3.64,5.14-6.31,6.78s-5.58,2.85-8.72,3.64c-3.14.79-6.52,1.17-10.16,1.17-9.9,0-18.74-2.03-26.49-6.08v-11.54l.09-.06Z"/>
        <path class="cls-1" d="M1586,1477.57v-62.08h-24.05v-10.57h60.91l-1.62,10.57h-22.44v62.08h-12.83.03Z"/>
        <path class="cls-1" d="M1686.64,1478.42l-6.52-16.68h-34.95l-6.2,15.8h-13.24l29.6-72.45,14.95-1.62,29.16,73.18-12.83,1.7.03.06ZM1649.37,1451.17h26.61l-13.24-33.98-13.36,33.98Z"/>
        <path class="cls-1" d="M1726.52,1477.57v-62.08h-24.05v-10.57h60.91l-1.62,10.57h-22.44v62.08h-12.83.03Z"/>
        <path class="cls-1" d="M1773.74,1477.57v-72.65h51.07v10.57h-38.26v19.65h34.51l1.62,10.57h-36.12v21.26h39.32v10.57h-52.15l.03.03Z"/>
      </g>
      <g>
        <path class="cls-1" d="M279.65,1299.14c1.26,0,1.88.56,1.88,1.7v13.45c0,1.26-.65,1.88-1.88,1.88-11.63,0-20.2-2.7-25.75-8.13-12.74,6.58-24.17,9.84-34.27,9.84-12.74,0-23.2-4.35-31.33-13.07-8.13-8.72-12.22-19.5-12.22-32.36s4.11-24.29,12.3-33.51c8.19-9.22,18.62-13.83,31.25-13.83,7.69,0,16.15,1.76,25.37,5.29v-11.75l15.89-2.64.18,61.9c0,7.58,1.44,13.01,4.35,16.27,2.91,3.29,7.64,4.93,14.18,4.93l.06.03ZM218.33,1193.51l-13.83,13.63-13.83-13.63,13.83-13.63,13.83,13.63ZM219.65,1301.61c8.46.12,17.53-2.03,27.25-6.43-1.26-4.29-1.88-9.51-1.88-15.71v-32.95c-10.22-3.41-18.5-5.11-24.81-5.11-8.46,0-15.36,2.97-20.73,8.9-5.37,5.93-8.05,13.24-8.05,21.97s2.61,15.27,7.87,20.82c5.23,5.55,12.01,8.4,20.35,8.52h0ZM248.43,1193.51l-13.83,13.63-14.01-13.63,14.01-13.63,13.83,13.63Z"/>
        <path class="cls-1" d="M279.65,1316.2c-1.26,0-1.88-.62-1.88-1.88l.18-13.45c0-1.15.65-1.7,1.88-1.7h14.39c15.77,0,23.67-7.9,23.67-23.67v-50.74l15.92-2.64v57.73c0,11.6-3.35,20.59-10.04,26.87-6.7,6.31-16.59,9.46-29.72,9.46h-14.39v.03ZM291.78,1358.4l-13.83-13.63,13.83-13.63,13.83,13.63-13.83,13.63ZM321.88,1358.4l-14.01-13.63,14.01-13.63,13.83,13.63-13.83,13.63Z"/>
        <path class="cls-1" d="M342.32,1356.9l-1.53-13.83c22.73,0,34.06-10.87,34.06-32.57l-.18-85.75,16.09-2.64v88.98c0,15.77-4.05,27.34-12.13,34.74-8.08,7.37-20.2,11.07-36.36,11.07h.03Z"/>
        <path class="cls-1" d="M459.31,1316.2c-26.49,0-39.76-12.63-39.76-37.85l-.18-97.88,16.09-2.47v96.56c0,16.42,7.9,24.61,23.67,24.61,1.26,0,1.88.56,1.88,1.7l.18,13.45c0,1.26-.62,1.88-1.88,1.88h0Z"/>
        <path class="cls-1" d="M565.88,1299.14c1.26,0,1.88.56,1.88,1.7v13.45c0,1.26-.62,1.88-1.88,1.88-18.68,0-36.03-2.32-52.07-7.02-14.39,4.67-32.57,7.02-54.53,7.02-1.26-.12-1.88-.76-1.88-1.88v-13.45c0-1.15.65-1.7,1.88-1.7,10.98,0,20.82-.38,29.54-1.15-11.63-8.72-17.41-19.88-17.41-33.51,0-11.48,3.96-21.06,11.92-28.69,7.96-7.64,17.85-11.45,29.72-11.45s22.08,3.88,29.92,11.63c7.81,7.75,11.75,17.27,11.75,28.49,0,13.51-5.81,24.55-17.41,33.12,7.46,1,16.97,1.53,28.57,1.53v.03ZM511.55,1194.83l-13.83,13.63-13.83-13.63,13.83-13.63,13.83,13.63ZM512.49,1240.29c-7.46,0-13.54,2.44-18.27,7.28-4.73,4.87-7.11,11.07-7.11,18.65,0,6.7,2.32,12.74,6.99,18.18,4.67,5.43,10.92,9.28,18.74,11.54,8.08-2.64,14.48-6.64,19.21-11.92,4.73-5.32,7.11-11.22,7.11-17.8,0-7.58-2.55-13.77-7.66-18.65-5.11-4.85-11.45-7.28-19.03-7.28h.03ZM541.65,1194.83l-13.83,13.63-14.01-13.63,14.01-13.63,13.83,13.63Z"/>
        <path class="cls-1" d="M679.29,1299.14c1.26,0,1.88.56,1.88,1.7v13.45c0,1.26-.65,1.88-1.88,1.88-22.08,0-39.88-3.35-53.39-10.04-8.46,3.79-17.18,6.4-26.14,7.87-8.96,1.44-20.26,2.17-33.89,2.17-1.26-.12-1.88-.76-1.88-1.88v-13.45c0-1.15.65-1.7,1.88-1.7,13.01,0,25.81-1.15,38.44-3.41-6.7-7.96-12.36-15.42-17.03-22.44-4.67-7.02-9.84-15.86-15.53-26.61l6.05-14.57c17.68-9.07,33.62-13.63,47.9-13.63,12.63,0,23.08,3.35,31.42,10.04,8.34,6.7,12.48,15.21,12.48,25.55,0,7.19-2.2,14.48-6.64,21.88-4.4,7.37-10.92,14.1-19.5,20.17,10.1,2.03,22.02,3.02,35.77,3.02l.06-.03ZM623.06,1234.8c-9.84-.12-21.26,2.85-34.27,8.9,5.55,10.72,10.75,19.65,15.62,26.78,4.85,7.14,10.81,14.68,17.88,22.61,9.07-4.4,16.5-9.78,22.26-16.09,5.76-6.31,8.6-12.19,8.6-17.62,0-7.31-2.73-13.24-8.22-17.8-5.49-4.55-12.77-6.81-21.88-6.81v.03Z"/>
        <path class="cls-1" d="M679.67,1316.2c-1.26,0-1.88-.62-1.88-1.88v-13.45c0-1.15.7-1.7,2.09-1.7,15.77,0,23.67-8.19,23.67-24.61l.18-94.09,15.92-2.47v100.34c0,25.25-13.3,37.85-39.94,37.85h-.03Z"/>
        <path class="cls-1" d="M752.36,1316.2v-135.73l16.09-2.47v138.2h-16.09Z"/>
        <path class="cls-1" d="M943.56,1177.42v114.15h-.18v6.25c0,18.3-4.4,32.71-13.24,43.26-8.84,10.54-22.47,15.8-40.88,15.8-15.92,0-28.49-4.14-37.76-12.39-9.28-8.28-13.92-20.47-13.92-36.62,0-13.51,2.79-28.72,8.34-45.63l13.07,3.58c-4.4,13.01-6.64,25.61-6.64,37.85.12,11.86,3.47,20.85,10.04,26.99,6.55,6.11,15.83,9.19,27.84,9.19,12.63,0,22-3.55,28.1-10.69,6.11-7.14,9.19-18.15,9.19-33.04v-116.23l16.09-2.47h-.06Z"/>
        <path class="cls-1" d="M1013.42,1316.2c-26.49,0-39.76-12.63-39.76-37.85l-.18-97.88,16.09-2.47v96.56c0,16.42,7.9,24.61,23.67,24.61,1.26,0,1.88.56,1.88,1.7l.18,13.45c0,1.26-.62,1.88-1.88,1.88h0Z"/>
        <path class="cls-1" d="M1084.6,1299.14c1.26,0,1.88.56,1.88,1.7v13.45c0,1.26-.62,1.88-1.88,1.88-11.75,0-22.58-4.61-32.57-13.83-6.81,9.22-19.68,13.83-38.62,13.83-1.26,0-1.88-.62-1.88-1.88l.18-13.45c0-1.15.65-1.7,1.88-1.7,10.1,0,17.44-1.85,22.05-5.58,4.61-3.73,6.9-9.75,6.9-18.09v-30.66l15.92-2.47v37.47c0,3.14-.32,6.43-.94,9.84,8.46,6.31,17.47,9.46,27.08,9.46v.03ZM1048.25,1215.1l-13.83,13.63-13.83-13.63,13.83-13.63,13.83,13.63ZM1078.35,1215.1l-13.83,13.63-14.01-13.63,14.01-13.63,13.83,13.63Z"/>
        <path class="cls-1" d="M1155.76,1299.14c1.26,0,1.88.56,1.88,1.7v13.45c0,1.26-.62,1.88-1.88,1.88-11.75,0-22.58-4.61-32.57-13.83-6.81,9.22-19.68,13.83-38.62,13.83-1.26,0-1.88-.62-1.88-1.88l.18-13.45c0-1.15.65-1.7,1.88-1.7,10.1,0,17.44-1.85,22.05-5.58,4.61-3.73,6.9-9.75,6.9-18.09v-30.66l15.92-2.47v37.47c0,3.14-.32,6.43-.94,9.84,8.46,6.31,17.47,9.46,27.08,9.46v.03ZM1090.83,1344.78l13.83-13.63,13.83,13.63-13.83,13.63-13.83-13.63ZM1120.75,1344.78l14.01-13.63,13.83,13.63-13.83,13.63-14.01-13.63Z"/>
        <path class="cls-1" d="M1155.76,1316.2c-1.26,0-1.88-.62-1.88-1.88l.18-13.45c0-1.15.65-1.7,1.88-1.7,15.92,0,23.85-7.9,23.85-23.67l-.18-50.74,16.09-2.64v57.73c0,11.6-3.38,20.59-10.13,26.87-6.75,6.31-16.68,9.46-29.81,9.46v.03ZM1176.4,1358.61l-14.01-13.63,13.63-13.83,14.18,13.83-13.83,13.63h.03Z"/>
        <path class="cls-1" d="M1264.62,1316.2c-26.49,0-39.76-12.63-39.76-37.85l-.18-97.88,16.09-2.47v96.56c0,16.42,7.9,24.61,23.67,24.61,1.26,0,1.88.56,1.88,1.7l.18,13.45c0,1.26-.62,1.88-1.88,1.88h0Z"/>
        <path class="cls-1" d="M1321.79,1236.12c13.89,0,24.96,3.55,33.21,10.69,8.25,7.14,12.39,16.77,12.39,28.87s-3.88,22.38-11.63,29.63c-7.75,7.25-18.15,10.89-31.13,10.89h-60.02c-1.26,0-1.88-.62-1.88-1.88v-13.45c0-1.15.65-1.7,1.88-1.7h58.67c8.72,0,15.56-2.09,20.56-6.25,4.99-4.17,7.49-9.96,7.49-17.41s-2.5-13.33-7.49-17.71c-4.99-4.35-11.78-6.52-20.35-6.52h-45.63l-8.72-15.33,56.62-67.01,15.53,8.13-53.21,59.06h33.71Z"/>
        <path class="cls-1" d="M1584.91,1299.14c1.26,0,1.88.56,1.88,1.7v13.45c0,1.26-.65,1.88-1.88,1.88-10.72,0-20.76-4.11-30.1-12.3-6.43,7.84-16.59,11.92-30.48,12.3h-49.6c-15.15,0-26.66-3.52-34.53-10.6-7.9-7.08-11.83-17.53-11.83-31.42,0-10.48,1.91-24.23,5.67-41.26l14.01,1.88c-3.02,15.53-4.55,27.19-4.55,35.03,0,19.56,11.66,29.34,35.03,29.34h43.73c15.92,0,23.85-7.9,23.85-23.67v-30.66l16.09-2.47v37.47c0,4.4-.44,8.19-1.32,11.36,7.84,5.29,15.83,7.96,24.05,7.96ZM1486.68,1344.78l13.63-13.83,14.18,13.83-13.83,13.63-14.01-13.63h.03Z"/>
        <path class="cls-1" d="M1636.04,1188.61c27.75-.12,49.57,5.99,65.4,18.35,15.83,12.36,23.76,29.1,23.76,50.16,0,11.86-2.26,26.69-6.81,44.49l-12.69,14.57h-59.06c-12.13,0-22.35-2.91-30.66-8.72-9.98,5.81-20.32,8.72-31.04,8.72-1.26,0-1.88-.62-1.88-1.88v-13.45c0-1.15.65-1.7,1.88-1.7,7.58,0,14.13-1.2,19.68-3.58-4.67-7.58-6.99-16.65-6.99-27.25,0-12.63,3.99-23.08,12.01-31.42,8.02-8.34,18.32-12.48,30.95-12.48,11.75,0,21.76,4.2,30.1,12.6,8.34,8.4,12.48,18.27,12.48,29.63,0,9.6-2.26,20.44-6.81,32.57h27.08c4.17-14.77,6.25-28.34,6.25-40.7,0-7.08-1.53-13.83-4.55-20.26-3.02-6.43-7.52-12.25-13.45-17.41-5.93-5.17-13.86-9.31-23.76-12.39-9.9-3.08-21.11-4.64-33.59-4.64l1.7-15.15v-.03ZM1645.32,1299.14h15.53c4.4-11.86,6.64-21.82,6.64-29.92s-2.5-14.45-7.49-20.26c-4.99-5.81-11.13-8.72-18.47-8.72-8.46,0-15.21,2.61-20.26,7.87-5.05,5.23-7.58,12.16-7.58,20.73,0,9.07,2.85,16.42,8.52,21.97,5.67,5.55,13.36,8.34,23.11,8.34h0Z"/>
        <path class="cls-1" d="M1738.65,1316.2l-3.23-17.03h47.72c7.69,0,13.6-1.88,17.71-5.67,4.11-3.79,6.14-9.16,6.14-16.09l-.18-10.98c-.12-7.69-2.88-13.95-8.22-18.74-5.37-4.79-12.22-7.19-20.53-7.19h-11.16v-16.65h14.57c12.13,0,22.02,3.73,29.72,11.16,7.69,7.46,11.6,17.24,11.75,29.34l.18,15.53c-.12,11.6-3.55,20.59-10.31,26.87-6.75,6.31-16.68,9.46-29.81,9.46h-44.34ZM1778.79,1205.82l-14.01-13.83,13.63-13.63,14.18,13.63-13.83,13.83h.03Z"/>
      </g>
    </g>
  </g>
  <g>
    <g>
      <polygon class="cls-1" points="1084.59 896.08 1257.19 1063.76 894.35 1063.76 723.35 896.08 723.35 692.73 894.35 692.73 894.35 896.08 1084.59 896.08"/>
      <polygon class="cls-1" points="1276.65 688.99 1276.65 1047.82 1107.89 879.48 1105.62 879.48 1105.62 662.92 894.35 662.92 894.35 521.31 1105.62 521.31 1276.65 688.99"/>
    </g>
    <rect class="cls-1" x="723.35" y="521.31" width="129.57" height="127.02"/>
  </g>
</svg>