<svg width="25" height="25" viewBox="0 0 25 25" fill="none" xmlns="http://www.w3.org/2000/svg">
<g id="lucide:land-plot">
<g id="Group">
<path id="Vector" d="M12.8477 8.64258L18.8477 5.64258L12.8477 2.64258V12.6426" stroke="#A97C50" stroke-width="1.5" stroke-linecap="round" stroke-linejoin="round"/>
<path id="Vector_2" d="M8.84679 12.6328L3.34679 15.7728C3.19289 15.86 3.06489 15.9865 2.97583 16.1394C2.88677 16.2922 2.83984 16.4659 2.83984 16.6428C2.83984 16.8197 2.88677 16.9934 2.97583 17.1463C3.06489 17.2991 3.19289 17.4256 3.34679 17.5128L11.8468 22.3728C12.1508 22.5483 12.4957 22.6408 12.8468 22.6408C13.1979 22.6408 13.5428 22.5483 13.8468 22.3728L22.3468 17.5128C22.5007 17.4256 22.6287 17.2991 22.7178 17.1463C22.8068 16.9934 22.8537 16.8197 22.8537 16.6428C22.8537 16.4659 22.8068 16.2922 22.7178 16.1394C22.6287 15.9865 22.5007 15.86 22.3468 15.7728L16.8468 12.6428M7.33679 13.4928L18.3568 19.7928M18.3568 13.4928L7.34679 19.7928" stroke="#A97C50" stroke-width="1.5" stroke-linecap="round" stroke-linejoin="round"/>
</g>
</g>
</svg>
